<svg xmlns="http://www.w3.org/2000/svg" width="26.863" height="26.862" viewBox="0 0 26.863 26.862">
  <g id="Group_598" data-name="Group 598" transform="translate(0 0)">
    <g id="Group_130" data-name="Group 130" transform="translate(0 0)">
      <path id="Path_89" data-name="Path 89" d="M1000.976-281.383a1.488,1.488,0,0,0-1.232-1.49c-.534-.1-1.067-.189-1.659-.283a.572.572,0,0,1-.481-.394c-.156-.408-.337-.846-.57-1.377a.519.519,0,0,1,.058-.562c.309-.424.632-.874.957-1.338a1.523,1.523,0,0,0-.173-2.024q-.823-.826-1.65-1.649a1.511,1.511,0,0,0-2.008-.169c-.5.351-.943.669-1.358.97a.5.5,0,0,1-.54.054c-.248-.108-.5-.211-.749-.314s-.5-.207-.753-.315a.6.6,0,0,1-.331-.4c-.061-.322-.116-.647-.168-.963-.038-.222-.076-.444-.116-.666a1.516,1.516,0,0,0-1.541-1.3q-1.155-.005-2.311,0a1.531,1.531,0,0,0-1.579,1.351c-.038.23-.078.459-.118.689-.053.306-.105.61-.153.916a.526.526,0,0,1-.354.437c-.44.174-.9.369-1.414.6a.5.5,0,0,1-.544-.054c-.429-.316-.878-.64-1.335-.963a1.513,1.513,0,0,0-2.01.158c-.552.544-1.113,1.1-1.665,1.66a1.524,1.524,0,0,0-.167,2.025c.291.414.608.859.969,1.359a.512.512,0,0,1,.066.539c-.19.437-.382.909-.589,1.44a.506.506,0,0,1-.42.347c-.407.064-.821.135-1.222.2l-.4.069a1.516,1.516,0,0,0-1.3,1.52c0,.68,0,1.428,0,2.353a1.526,1.526,0,0,0,1.328,1.555l.64.11c.323.056.657.115.986.166a.525.525,0,0,1,.439.353c.185.463.386.939.6,1.415a.5.5,0,0,1-.052.544c-.325.441-.649.9-.951,1.32a1.519,1.519,0,0,0,.155,2.025c.572.578,1.137,1.141,1.678,1.675a1.514,1.514,0,0,0,1.993.151c.134-.1.268-.19.4-.285.315-.223.64-.455.956-.686a.532.532,0,0,1,.321-.112.64.64,0,0,1,.259.061c.5.223.892.384,1.259.52a.622.622,0,0,1,.448.537c.088.611.178,1.146.274,1.634a1.5,1.5,0,0,0,1.5,1.227c.774,0,1.58,0,2.393,0a1.5,1.5,0,0,0,1.505-1.243c.1-.54.189-1.072.283-1.66a.571.571,0,0,1,.4-.477c.415-.158.852-.339,1.376-.571a.52.52,0,0,1,.56.055c.3.22.6.436.906.651l.435.31a1.491,1.491,0,0,0,.9.3h.015a1.512,1.512,0,0,0,1.111-.472l.677-.678q.472-.47.943-.943a1.537,1.537,0,0,0,.177-2.072l-.014-.02c-.3-.424-.609-.862-.919-1.287a.536.536,0,0,1-.063-.578c.186-.414.374-.871.581-1.4a.538.538,0,0,1,.453-.366c.53-.082,1.095-.172,1.661-.278a1.507,1.507,0,0,0,1.256-1.515C1000.978-279.837,1000.978-280.619,1000.976-281.383Zm-1.243,2.649-2.274.381c-.074.014-.15.026-.225.035a.68.68,0,0,0-.646.577,8.5,8.5,0,0,1-.931,2.239.681.681,0,0,0,.046.839c.318.437.632.882.935,1.312l.381.539.14.2-2.054,2.046-.2-.14-.506-.356c-.41-.285-.832-.581-1.244-.9a.787.787,0,0,0-1.023-.058,7.447,7.447,0,0,1-2.115.872.735.735,0,0,0-.623.7c-.068.494-.156.991-.239,1.471-.033.19-.067.381-.1.572a1.184,1.184,0,0,1-.031.136l-.068.269H986.1l-.359-2.153c-.026-.158-.053-.321-.085-.477a.562.562,0,0,0-.431-.472,10.535,10.535,0,0,1-2.388-.978.589.589,0,0,0-.686.049l-2.128,1.511-2.05-2.049.141-.2c.122-.171.243-.344.366-.519.291-.413.592-.84.906-1.257a.761.761,0,0,0,.047-.974,8.258,8.258,0,0,1-.919-2.2.659.659,0,0,0-.6-.535c-.642-.1-1.329-.221-2.162-.372a.483.483,0,0,1-.386-.416c-.007-.632,0-1.274,0-1.9v-.338a.35.35,0,0,1,.038-.15l.007-.015.061-.147.83-.14q.807-.137,1.611-.27a.638.638,0,0,0,.572-.515,9.353,9.353,0,0,1,.963-2.358.609.609,0,0,0-.042-.719q-.448-.634-.9-1.263l-.395-.554-.062-.088-.163-.235,2.048-2.036.294.207.245.173.2.14,1.351.963a.631.631,0,0,0,.753.044,9.562,9.562,0,0,1,2.364-.994.593.593,0,0,0,.475-.519c.079-.452.155-.9.234-1.356l.133-.78c.01-.057.022-.114.034-.173l.063-.308h2.865l.247,1.447c.02.12.04.241.061.363.043.26.087.529.136.792a.582.582,0,0,0,.467.5,9.852,9.852,0,0,1,2.45,1.005.6.6,0,0,0,.718-.04c.457-.326.912-.654,1.361-.977l.727-.522,2.052,2.049-1.358,1.907c-.048.069-.1.136-.145.206a.589.589,0,0,0-.042.687,10.056,10.056,0,0,1,1.013,2.445.555.555,0,0,0,.484.429q.684.119,1.367.234l.768.131c.057.01.114.022.173.034l.307.062Z" transform="translate(-974.115 293.607)" fill="#954306"/>
    </g>
    <g id="Group_131" data-name="Group 131" transform="translate(7.722 7.717)">
      <path id="Path_90" data-name="Path 90" d="M1009.257-266.562a5.68,5.68,0,0,0-4.042-1.671h0a5.716,5.716,0,0,0-5.707,5.7,5.682,5.682,0,0,0,1.668,4.046,5.675,5.675,0,0,0,4.039,1.676h0a5.68,5.68,0,0,0,4.041-1.671,5.668,5.668,0,0,0,1.673-4.041A5.674,5.674,0,0,0,1009.257-266.562Zm-4.033,8.508h0a4.468,4.468,0,0,1-4.47-4.455,4.45,4.45,0,0,1,1.311-3.174,4.434,4.434,0,0,1,3.153-1.305h.008a4.478,4.478,0,0,1,4.462,4.466v0A4.468,4.468,0,0,1,1005.224-258.055Z" transform="translate(-999.505 268.233)" fill="#954306"/>
    </g>
  </g>
</svg>
